<svg width="24" height="23" viewBox="0 0 24 23" fill="none" xmlns="http://www.w3.org/2000/svg">
<path d="M11.3987 0.920419C11.7086 0.0211481 12.9805 0.0214832 13.2898 0.920916L15.4122 7.09163C15.5485 7.48811 15.9178 7.75742 16.3369 7.76617L22.8307 7.90164C23.7761 7.92137 24.1685 9.12099 23.4174 9.69563L18.2303 13.6644C17.9002 13.9169 17.7607 14.3473 17.8799 14.7454L19.7611 21.0278C20.0333 21.9369 19.0046 22.6785 18.2281 22.1327L12.9198 18.4018C12.5749 18.1593 12.115 18.1593 11.77 18.4016L6.45762 22.1329C5.68091 22.6785 4.65228 21.9364 4.92503 21.0273L6.80952 14.7459C6.92904 14.3475 6.78949 13.9168 6.45908 13.6642L1.26876 9.6958C0.517377 9.12132 0.909653 7.92134 1.85529 7.90161L8.34784 7.76616C8.76683 7.75742 9.13593 7.48834 9.27244 7.09211L11.3987 0.920419Z" fill="black"/>
</svg>
