<svg width="19" height="23" viewBox="0 0 19 23" fill="none" xmlns="http://www.w3.org/2000/svg">
<path d="M3.6463 13.3932C3.9463 13.5132 4.20631 13.3932 4.29631 13.0732C4.35631 12.8432 4.4963 12.2732 4.5563 12.0332C4.6463 11.7032 4.6063 11.5932 4.3663 11.3132C3.8463 10.6932 3.5063 9.89322 3.5063 8.76322C3.5063 5.48322 5.9563 2.54322 9.8963 2.54322C13.3863 2.54322 15.2963 4.67322 15.2963 7.52322C15.2963 11.2632 13.6363 14.4232 11.1763 14.4232C9.8163 14.4232 8.80631 13.3032 9.12631 11.9232C9.51631 10.2832 10.2763 8.50322 10.2763 7.31322C10.2763 6.25322 9.70631 5.36322 8.52631 5.36322C7.13631 5.36322 6.02631 6.80322 6.02631 8.72322C6.02631 9.95322 6.43631 10.7732 6.43631 10.7732C6.43631 10.7732 5.01631 16.7932 4.76631 17.8432C4.26631 19.9432 4.6963 22.5132 4.7263 22.7732C4.7463 22.9232 4.9463 22.9632 5.0363 22.8432C5.1663 22.6732 6.81631 20.6332 7.37631 18.5932C7.53631 18.0132 8.2863 15.0232 8.2863 15.0232C8.7363 15.8832 10.0563 16.6432 11.4563 16.6432C15.6263 16.6432 18.4663 12.8432 18.4663 7.74322C18.4663 3.89322 15.2063 0.303223 10.2463 0.303223C4.07631 0.303223 0.966309 4.72322 0.966309 8.41322C0.996309 10.6732 1.8363 12.6532 3.6463 13.3932Z" fill="white"/>
</svg>
